<svg width="17" height="21" viewBox="0 0 17 21" fill="none" xmlns="http://www.w3.org/2000/svg">
<path d="M10.8485 4.79482C11.9468 4.98849 12.9989 4.23734 13.1853 3.18027C13.3804 2.07365 12.6458 1.02449 11.5474 0.830815C10.4491 0.637144 9.42467 1.37615 9.22955 2.48277C9.04316 3.53983 9.75011 4.60115 10.8485 4.79482ZM12.7737 20.6876C13.2444 20.7706 13.7267 20.498 13.8287 19.9199C13.8665 19.7052 13.8437 19.4968 13.7688 19.2452L12.72 15.3381C12.6199 14.9883 12.4892 14.6673 12.3648 14.4069L9.7914 12.3924L9.89387 12.1976C10.3586 11.3003 10.369 11.3776 10.5952 10.4808L11.2268 7.96104C11.539 6.72179 10.9928 5.56961 9.67977 5.33808C8.7218 5.16916 8.06836 4.31413 6.80441 5.28079L4.21649 6.47524C3.67393 6.8479 3.45975 7.19332 3.31653 7.76412L2.77324 9.83116C2.63147 10.3937 2.88802 10.8221 3.39421 10.9454C3.87563 11.0644 4.28996 10.8394 4.45553 10.2385L5.05028 7.97616L7.01591 7.16354C7.18786 7.05762 7.38947 7.16981 7.33363 7.38987L6.66462 10.45C6.4141 11.4362 6.72365 12.2401 7.10994 12.9468L10.6555 15.2636C10.791 15.5089 10.8012 15.5958 10.8562 15.7673L11.9784 19.9343C12.1227 20.4196 12.4268 20.6265 12.7737 20.6876ZM12.9984 11.3389L14.997 10.6912C15.575 10.7932 15.9981 10.5187 16.0884 10.0066C16.1787 9.49462 16 9 15.2887 8.98857L13.1993 9.62016L12.024 7.78653L11.4666 10.0299L11.9768 10.7585C12.2217 11.1082 12.4864 11.2486 12.9984 11.3389ZM1.70946 17.7058C1.9985 17.7568 2.27781 17.6698 2.49735 17.4871L6.88476 16.6983C7.21553 16.416 7.26312 16.3392 7.43553 16.0375C7.53946 15.8345 8.14949 14.836 8.23398 14.6466L6.62047 13.6774L5.7221 15.2756L1.50567 15.9158C1.22784 16.1393 1.03016 16.3428 0.971909 16.6732C0.881627 17.1852 1.2057 17.617 1.70946 17.7058Z" fill="#32363D"/>
</svg>
