<svg width="18" height="22" viewBox="0 0 18 22" fill="none" xmlns="http://www.w3.org/2000/svg">
<path d="M10.8485 5.79482C11.9468 5.98849 12.9989 5.23734 13.1853 4.18027C13.3804 3.07365 12.6458 2.02449 11.5474 1.83081C10.4491 1.63714 9.42467 2.37615 9.22955 3.48277C9.04316 4.53983 9.75011 5.60115 10.8485 5.79482ZM12.7737 21.6876C13.2444 21.7706 13.7267 21.498 13.8287 20.9199C13.8665 20.7052 13.8437 20.4968 13.7688 20.2452L12.72 16.3381C12.6199 15.9883 12.4892 15.6673 12.3648 15.4069L9.7914 13.3924L9.89387 13.1976C10.3586 12.3003 10.369 12.3776 10.5952 11.4808L11.2268 8.96104C11.539 7.72179 10.9928 6.56961 9.67977 6.33808C8.7218 6.16916 8.06836 5.31413 6.80441 6.28079L4.21649 7.47524C3.67393 7.8479 3.45975 8.19332 3.31653 8.76412L2.77324 10.8312C2.63147 11.3937 2.88802 11.8221 3.39421 11.9454C3.87563 12.0644 4.28996 11.8394 4.45553 11.2385L5.05028 8.97616L7.01591 8.16354C7.18786 8.05762 7.38947 8.16981 7.33363 8.38987L6.66462 11.45C6.4141 12.4362 6.72365 13.2401 7.10994 13.9468L10.6555 16.2636C10.791 16.5089 10.8012 16.5958 10.8562 16.7673L11.9784 20.9343C12.1227 21.4196 12.4268 21.6265 12.7737 21.6876ZM12.9984 12.3389L14.997 11.6912C15.575 11.7932 15.9981 11.5187 16.0884 11.0066C16.1787 10.4946 16 10 15.2887 9.98857L13.1993 10.6202L12.024 8.78653L11.4666 11.0299L11.9768 11.7585C12.2217 12.1082 12.4864 12.2486 12.9984 12.3389ZM1.70946 18.7058C1.9985 18.7568 2.27781 18.6698 2.49735 18.4871L6.88476 17.6983C7.21553 17.416 7.26312 17.3392 7.43553 17.0375C7.53946 16.8345 8.14949 15.836 8.23398 15.6466L6.62047 14.6774L5.7221 16.2756L1.50567 16.9158C1.22784 17.1393 1.03016 17.3428 0.971909 17.6732C0.881627 18.1852 1.2057 18.617 1.70946 18.7058Z" fill="white"/>
</svg>
