<svg width="24" height="10" viewBox="0 0 24 10" fill="none" xmlns="http://www.w3.org/2000/svg">
<path d="M3.33333 4.79167C3.61979 3.78906 3.90625 2.69531 4.15365 1.64062H4.21875C4.49219 2.68229 4.7526 3.78906 5.05208 4.79167L5.33854 5.84635H3.04687L3.33333 4.79167ZM0 9.81771H1.95313L2.63021 7.34375H5.75521L6.43229 9.81771H8.45052L5.35156 0.16927H3.08594L0 9.81771Z" fill="white"/>
<path d="M8.7972 9.81771H12.2347C14.3571 9.81771 15.9717 8.91927 15.9717 6.97917C15.9717 5.67708 15.2034 4.94792 14.1618 4.70052V4.63542C14.9821 4.34896 15.4769 3.4375 15.4769 2.55208C15.4769 0.755208 13.9665 0.16927 11.9873 0.16927H8.7972V9.81771ZM10.7243 4.10156V1.65365H11.8701C13.029 1.65365 13.6019 1.99219 13.6019 2.83854C13.6019 3.60677 13.068 4.10156 11.8441 4.10156H10.7243ZM10.7243 8.33333V5.52083H12.0654C13.3936 5.52083 14.0967 5.92448 14.0967 6.86198C14.0967 7.86458 13.3805 8.33333 12.0654 8.33333H10.7243Z" fill="white"/>
<path d="M20.8111 10C22.0611 10 23.0897 9.50521 23.884 8.58073L22.8683 7.38281C22.3475 7.94271 21.7095 8.33333 20.8762 8.33333C19.3527 8.33333 18.3631 7.07031 18.3631 4.97396C18.3631 2.90365 19.4569 1.65365 20.9152 1.65365C21.6444 1.65365 22.2043 1.99219 22.6991 2.46094L23.7017 1.23698C23.0767 0.585937 22.1001 0 20.8762 0C18.4413 0 16.397 1.86198 16.397 5.03906C16.397 8.25521 18.3762 10 20.8111 10Z" fill="white"/>
</svg>
