<svg width="20" height="19" viewBox="0 0 20 19" fill="none" xmlns="http://www.w3.org/2000/svg">
<path d="M0 6.5032C0 10.6046 3.44824 14.658 8.8079 18.1158C9.10566 18.3079 9.47065 18.5 9.72039 18.5C9.97012 18.5 10.3351 18.3079 10.6329 18.1158C16.0021 14.658 19.4408 10.6046 19.4408 6.5032C19.4408 2.95891 16.9915 0.5 13.8506 0.5C12.016 0.5 10.5848 1.33565 9.72039 2.60352C8.87513 1.34525 7.43437 0.5 5.59979 0.5C2.44931 0.5 0 2.95891 0 6.5032ZM1.97866 6.4936C1.97866 4.07311 3.57311 2.43063 5.71505 2.43063C7.44397 2.43063 8.41409 3.47759 9.01921 4.39007C9.28815 4.78388 9.47065 4.90875 9.72039 4.90875C9.97972 4.90875 10.143 4.77428 10.4216 4.39007C11.0747 3.4968 12.0064 2.43063 13.7257 2.43063C15.8773 2.43063 17.4717 4.07311 17.4717 6.4936C17.4717 9.8746 13.9562 13.6206 9.90288 16.31C9.81644 16.3677 9.75881 16.4061 9.72039 16.4061C9.68196 16.4061 9.62433 16.3677 9.54749 16.31C5.49413 13.6206 1.97866 9.8746 1.97866 6.4936ZM6.7524 10.3549C6.7524 10.5374 6.90608 10.6814 7.09819 10.6814H9.40342L8.16436 13.9568C7.99146 14.4274 8.50053 14.6964 8.8175 14.3122L12.5923 9.60566C12.6692 9.51921 12.7172 9.41355 12.7172 9.3175C12.7172 9.13501 12.5539 8.99093 12.3618 8.99093H10.0662L11.2956 5.72519C11.4685 5.24493 10.9594 4.97599 10.6521 5.3698L6.86766 10.0667C6.79082 10.1628 6.7524 10.2588 6.7524 10.3549Z" fill="white"/>
</svg>
