<svg width="21" height="18" viewBox="0 0 21 18" fill="none" xmlns="http://www.w3.org/2000/svg">
<path d="M2.86524 17.3439H17.1484C19.0394 17.3439 20.0068 16.394 20.0068 14.5207V5.9015C20.0068 4.03694 19.0394 3.07828 17.1484 3.07828H15.2751V2.146C15.2751 0.800352 14.4132 0 12.9444 0H7.06928C5.6005 0 4.73859 0.800352 4.73859 2.146V3.07828H2.86524C0.983089 3.07828 0.00683594 4.03694 0.00683594 5.9015V14.5207C0.00683594 16.394 0.983089 17.3439 2.86524 17.3439ZM6.38327 2.23395C6.38327 1.77661 6.69989 1.48637 7.18362 1.48637H12.8301C13.3226 1.48637 13.6304 1.77661 13.6304 2.23395V3.07828H6.38327V2.23395ZM1.75706 5.95427C1.75706 5.16271 2.17042 4.76693 2.9356 4.76693H17.0781C17.8432 4.76693 18.2478 5.16271 18.2478 5.95427V7.10642C15.8204 7.94195 13.0323 8.35532 10.0068 8.35532C6.98133 8.35532 4.19329 7.94195 1.75706 7.10642V5.95427ZM2.9356 15.6552C2.17042 15.6552 1.75706 15.2683 1.75706 14.4679V8.80387C3.56005 9.34916 5.52135 9.70097 7.5618 9.85048V10.5453C7.5618 11.2137 7.94879 11.5831 8.6348 11.5831H11.3789C12.0649 11.5831 12.4431 11.2137 12.4431 10.5453V9.85048C14.4923 9.70097 16.4448 9.34916 18.2478 8.80387V14.4679C18.2478 15.2683 17.8432 15.6552 17.0781 15.6552H2.9356Z" fill="#ffffff"/>
</svg>
