<svg width="20" height="18" viewBox="0 0 20 18" fill="none" xmlns="http://www.w3.org/2000/svg">
<path d="M10 1.73568C9.22467 0.819383 7.4978 0 5.47137 0C2.76652 0 0.581498 1.40088 0 2.73128V15.9559C0 16.8194 0.563877 17.1542 1.18943 17.1542C1.65639 17.1542 1.9207 17.0132 2.22026 16.793C2.81938 16.3084 3.79736 15.7445 5.47137 15.7445C7.15418 15.7445 8.29956 16.3084 8.81057 16.7401C9.09251 16.9515 9.4185 17.1542 10 17.1542C10.5815 17.1542 10.8987 16.9339 11.1894 16.7401C11.7357 16.3348 12.8458 15.7445 14.5286 15.7445C16.2026 15.7445 17.1982 16.3172 17.7797 16.793C18.0793 17.0132 18.3436 17.1542 18.8106 17.1542C19.4361 17.1542 20 16.8194 20 15.9559V2.73128C19.4185 1.40088 17.2423 0 14.5286 0C12.5022 0 10.7841 0.819383 10 1.73568ZM1.91189 3.33921C2.14978 2.75771 3.45374 1.77093 5.47137 1.77093C7.48899 1.77093 8.837 2.76652 9.04846 3.33921V14.9604C8.14097 14.3084 6.84581 13.9559 5.47137 13.9559C4.08811 13.9559 2.80176 14.3084 1.91189 14.9868V3.33921ZM18.0881 3.33921V14.9868C17.1982 14.3084 15.9119 13.9559 14.5286 13.9559C13.1542 13.9559 11.859 14.3084 10.9515 14.9604V3.33921C11.163 2.76652 12.511 1.77093 14.5286 1.77093C16.5463 1.77093 17.8502 2.75771 18.0881 3.33921Z" fill="#ffffff"/>
</svg>
