<svg height="297mm" width="210mm" xmlns="http://www.w3.org/2000/svg" xmlns:xlink="http://www.w3.org/1999/xlink"><linearGradient id="a"><stop offset="0" stop-color="#fff"/><stop offset="1" stop-color="#fff" stop-opacity="0"/></linearGradient><radialGradient id="b" cx="383.85797" cy="690.7276" gradientTransform="matrix(1 0 0 .08888889 0 629.32959)" gradientUnits="userSpaceOnUse" r="272.74118"><stop offset="0" stop-color="#2e3436"/><stop offset="1" stop-color="#2e3436" stop-opacity="0"/></radialGradient><linearGradient id="c" gradientUnits="userSpaceOnUse" x1="197.80473" x2="252.72331" xlink:href="#a" y1="229.08786" y2="229.08786"/><linearGradient id="d" gradientTransform="matrix(.8564872 0 0 .9632197 46.344101 9.833779)" gradientUnits="userSpaceOnUse" x1="656.59918" x2="679.8327" xlink:href="#a" y1="377.07523" y2="470.00925"/><linearGradient id="e" gradientTransform="matrix(.8564872 0 0 .9632197 46.344101 9.833779)" gradientUnits="userSpaceOnUse" x1="473.26154" x2="447.99759" xlink:href="#a" y1="319.49649" y2="484.15137"/><linearGradient id="f" gradientTransform="matrix(.8564872 0 0 .9632197 46.344101 9.833779)" gradientUnits="userSpaceOnUse" x1="226.27417" x2="291.93408" xlink:href="#a" y1="345.76047" y2="506.37473"/><linearGradient id="g" gradientTransform="matrix(.8564872 0 0 .9632197 46.344101 9.833779)" gradientUnits="userSpaceOnUse" x1="21.723356" x2="170.20563" xlink:href="#a" y1="342.73001" y2="506.37473"/><linearGradient id="h" gradientTransform="matrix(.7620149 0 0 .92603196 81.505933 27.987708)" gradientUnits="userSpaceOnUse" x1="-36.334824" x2="780.71875" y1="488.16965" y2="488.16965"><stop offset="0" stop-color="#fff"/><stop offset=".25" stop-color="#fff" stop-opacity=".316017"/><stop offset=".5" stop-color="#fff"/><stop offset="1" stop-color="#fff" stop-opacity="0"/></linearGradient><rect fill="none" height="717.14288" opacity=".668712" rx="17.274803" width="717.14288" x="11.428572" y="100.93361"/><path d="m656.59915 690.7276a272.74118 24.243662 0 1 1 -545.48236 0 272.74118 24.243662 0 1 1 545.48236 0z" fill="url(#b)" opacity=".8" transform="matrix(1 0 0 2.1666666 -18.182746 -846.25494)"/><path d="m245.94738 260.61388-6.96661 221.21323-201.983568-168.75842 141.172248 324.22139c2.33952 10.87334 88.68577 53.10145 184.6301 53.10145 94.8507 0 172.31641-28.93054 182.78603-48.87157l147.66073-328.45127-201.98357 168.75842-6.96661-221.21323-119.17438 207.52632z" fill="#edd400" stroke="#c4a000" stroke-linejoin="round" stroke-width="20.700851"/><path d="m255.3396 301.21283-6.13401 202.65813-183.851213-151.5664 122.803793 276.80366c2.19446 9.98522 84.78973 48.27735 174.78535 48.27735 88.96982 0 162.8345-26.08066 172.65499-44.39295l129.69126-281.66184-183.45056 152.05331-6.93531-202.17126-109.78215 188.14159z" fill="url(#h)" opacity=".800614" stroke="#fff" stroke-width="7.767671"/><path d="m74.895131 367.68856 116.799669 259.79068-57.96724-199.46476z" fill="url(#g)" opacity=".8"/><path d="m257.44869 318.06561-2.59556 191.68077 25.95549-147.89582z" fill="url(#f)" opacity=".8"/><path d="m369.92244 491.2594 98.63083-170.2748.86518 36.97396z" fill="url(#e)" opacity=".8"/><path d="m536.03752 464.98843 118.53004-98.27288-47.58505 60.32593z" fill="url(#d)" opacity=".8"/><g stroke-dashoffset="22.8018" stroke-linecap="round"><path d="m249.50768 229.08786a24.243662 24.243662 0 1 1 -48.48732 0 24.243662 24.243662 0 1 1 48.48732 0z" fill="#fce94f" stroke="#c4a000" stroke-width="15.827316" transform="matrix(1.2157383 0 0 1.3672395 -221.46173 18.469626)"/><path d="m249.50768 229.08786a24.243662 24.243662 0 1 1 -48.48732 0 24.243662 24.243662 0 1 1 48.48732 0z" fill="url(#c)" opacity=".8" stroke="#fff" stroke-width="6.431255" transform="matrix(.86464104 0 0 .97238965 -142.37213 108.92493)"/><path d="m249.50768 229.08786a24.243662 24.243662 0 1 1 -48.48732 0 24.243662 24.243662 0 1 1 48.48732 0z" fill="#fce94f" stroke="#c4a000" stroke-width="15.827316" transform="matrix(1.2248504 0 0 1.377487 -24.075167 -34.790995)"/><path d="m249.50768 229.08786a24.243662 24.243662 0 1 1 -48.48732 0 24.243662 24.243662 0 1 1 48.48732 0z" fill="url(#c)" opacity=".8" stroke="#fff" stroke-width="6.431255" transform="matrix(.86464104 0 0 .97238965 57.067032 58.011887)"/><path d="m249.50768 229.08786a24.243662 24.243662 0 1 1 -48.48732 0 24.243662 24.243662 0 1 1 48.48732 0z" fill="#fce94f" stroke="#c4a000" stroke-width="15.827316" transform="matrix(1.1938982 0 0 1.3426777 214.14879 -33.696745)"/><path d="m249.50768 229.08786a24.243662 24.243662 0 1 1 -48.48732 0 24.243662 24.243662 0 1 1 48.48732 0z" fill="url(#c)" opacity=".8" stroke="#fff" stroke-width="6.431255" transform="matrix(.86464104 0 0 .97238965 288.31857 51.131747)"/><path d="m249.50768 229.08786a24.243662 24.243662 0 1 1 -48.48732 0 24.243662 24.243662 0 1 1 48.48732 0z" fill="#fce94f" stroke="#c4a000" stroke-width="15.827316" transform="matrix(1.2169828 0 0 1.368639 410.83493 16.772986)"/><path d="m249.50768 229.08786a24.243662 24.243662 0 1 1 -48.48732 0 24.243662 24.243662 0 1 1 48.48732 0z" fill="url(#c)" opacity=".8" stroke="#fff" stroke-width="6.431255" transform="matrix(.86464104 0 0 .97238965 490.20485 107.5489)"/></g></svg>