<svg width="137" height="50" viewBox="0 0 137 50" fill="none" xmlns="http://www.w3.org/2000/svg">
<rect x="1.76654" y="20.3222" width="24.7315" height="5.2996" fill="black"/>
<rect x="41.3369" y="18.5557" width="21.1984" height="5.2996" fill="black"/>
<rect x="93.6263" y="16.0825" width="4.23968" height="8.83267" fill="black"/>
<path d="M81.6139 20.3222H88.68L81.6139 37.6343H74.5478L81.6139 20.3222Z" fill="#D9C56E"/>
<path d="M98.5726 16.0825L102.812 20.3222V24.9152H98.5726V16.0825Z" fill="black"/>
<path d="M98.5726 16.0825L102.812 20.3222L98.5726 20.3222L98.5726 16.0825Z" fill="#D9C56E"/>
<path d="M111.292 21.7354H117.651V46.4669L111.292 50V21.7354Z" fill="#D9C56E"/>
<path d="M119.418 16.0825H121.538L125.777 20.3222V46.1136L119.418 49.6467V16.0825Z" fill="black"/>
<path d="M0 50H31.7976L26.498 44.7004H0V50Z" fill="#D9C56E"/>
<rect x="10.9525" y="25.6218" width="6.35952" height="19.0786" fill="#D9C56E"/>
<path d="M0 44.7004H33.5642L28.2646 50H0V44.7004Z" fill="black"/>
<path d="M81.6139 20.3222H88.68L102.812 50H95.7462L81.6139 20.3222Z" fill="black"/>
<path d="M125.777 39.0475L136.376 32.688V39.7541L125.777 46.1136V39.0475Z" fill="black"/>
<path d="M121.538 16.0825L125.777 20.3222L121.538 20.3222L121.538 16.0825Z" fill="#D9C56E"/>
<rect x="37.8038" y="26.6817" width="28.2646" height="5.2996" fill="black"/>
<path d="M60.7148 31.9814C60.0889 39.1096 54.1039 44.7004 46.8132 44.7004C46.7542 44.7004 46.6953 44.7 46.6365 44.6993V49.9992C46.6953 49.9998 46.7542 50 46.8132 50C57.0322 50 65.3918 42.0395 66.0293 31.9814H60.7148Z" fill="#D9C56E"/>
<path d="M9.58452 1.50367H7.76429V2.49293C7.76429 3.17552 7.99182 3.35359 8.78322 3.35359H9.99012C10.5441 3.35359 10.7716 3.17552 10.8508 2.51272C10.6331 2.46326 10.3463 2.36433 10.188 2.25551C10.1583 2.66111 10.1088 2.72046 9.89119 2.72046H8.89204C8.58537 2.72046 8.53591 2.69079 8.53591 2.49293V2.12691H10.3858V0.356134H7.58622V0.969474H9.58452V1.50367ZM6.38921 1.50367H4.54919V2.50283C4.54919 3.17552 4.75694 3.35359 5.55824 3.35359H6.68599C7.23998 3.35359 7.45762 3.17552 7.53676 2.5325C7.31912 2.49293 7.02234 2.39401 6.87395 2.28519C6.84427 2.671 6.8047 2.72046 6.58707 2.72046H5.64727C5.36039 2.72046 5.31092 2.69079 5.31092 2.49293V2.12691H7.17073V0.356134H4.39091V0.969474H6.38921V1.50367ZM6.79481 4.77812H8.18967V5.58932H6.79481V4.77812ZM10.8013 5.58932H9.07011V4.77812H10.4946V4.09553H9.07011V3.46241H8.18967V4.09553H6.79481V3.46241H5.92426V4.09553H4.5393V4.77812H5.92426V5.58932H4.23263V6.29169H10.8013V5.58932ZM10.7123 7.49859C10.2374 7.13256 9.41635 6.66761 8.69419 6.33126L8.04128 6.72696C8.69419 7.06331 9.39656 7.51837 9.78237 7.86461L10.7123 7.49859ZM6.2705 6.32137C5.83523 6.68739 5.12296 7.03363 4.44037 7.28095C4.63823 7.40955 4.96468 7.68655 5.11307 7.84483C5.76598 7.54805 6.57717 7.0831 7.0817 6.59836L6.2705 6.32137ZM4.05456 1.85981C3.77757 1.37507 3.15434 0.712267 2.60035 0.237422L1.8683 0.702374C2.42228 1.197 3.02573 1.89938 3.27305 2.38412L4.05456 1.85981ZM3.85671 3.84822H1.87819V4.69898H3.00595V7.09299C2.59046 7.46891 2.1354 7.84483 1.74959 8.12182L2.21454 8.99237C2.67949 8.56699 3.09498 8.16139 3.49068 7.75579C4.09413 8.51752 4.95479 8.85387 6.20126 8.90334C7.36858 8.94291 9.51528 8.92312 10.6826 8.87366C10.7321 8.60656 10.8706 8.21085 10.9596 8.00311C9.69334 8.09214 7.3389 8.12182 6.19136 8.07236C5.10318 8.03279 4.29198 7.71622 3.85671 7.01385V3.84822Z" fill="black"/>
<path d="M16.9347 2.90842L17.5678 3.49209C17.9438 3.22499 18.5967 2.71057 18.844 2.50283L18.6066 1.87959C17.9833 1.45421 16.905 0.939796 16.1235 0.633126L15.5399 1.35529C16.3016 1.64217 17.1721 2.10712 17.5975 2.43358C17.459 2.5424 17.1919 2.74025 16.9347 2.90842ZM15.1244 7.56783L15.2728 8.59667C15.7377 8.6857 16.2818 8.74505 16.8853 8.74505C17.7261 8.74505 18.6956 8.4186 18.6956 7.16224C18.6956 6.25212 18.0724 5.38157 17.093 4.36263C16.8457 4.10543 16.5984 3.84822 16.3313 3.58112L15.5794 4.22414C15.8762 4.46156 16.1928 4.74845 16.4302 4.98587C16.9248 5.52007 17.6272 6.4104 17.6272 7.05342C17.6272 7.60741 17.1721 7.79536 16.6973 7.79536C16.1334 7.79536 15.6487 7.71622 15.1244 7.56783ZM20.7335 8.10204L21.6733 7.59751C21.3666 6.70718 20.6148 5.25297 19.9619 4.46156L19.1309 4.92651C19.8036 5.71792 20.4763 7.14245 20.7335 8.10204ZM15.5794 6.20266L14.9859 5.44093C14.422 6.07405 13.2942 6.93471 12.4633 7.37988L13.0568 8.22075C14.056 7.60741 15.0156 6.78632 15.5794 6.20266ZM19.9322 1.67185L19.2892 1.93895C19.5563 2.31487 19.8827 2.90842 20.0806 3.31402L20.7335 3.02713C20.5356 2.64132 20.1795 2.02798 19.9322 1.67185ZM21.0599 1.24647L20.4268 1.51357C20.7038 1.88949 21.0204 2.46326 21.238 2.87875L21.881 2.60175C21.6931 2.24562 21.3171 1.61249 21.0599 1.24647Z" fill="black"/>
<path d="M27.8463 0.435274L26.8174 0.356134C26.7976 0.712267 26.7185 1.12776 26.5899 1.53335C26.392 1.54324 26.1942 1.54324 26.0062 1.54324C25.5314 1.54324 24.829 1.51357 24.3047 1.43443V2.36433C24.8587 2.4039 25.5413 2.42369 25.9568 2.42369C26.0458 2.42369 26.1447 2.42369 26.2437 2.42369C25.8381 3.26456 25.1654 4.22414 24.0079 5.31232L24.8587 5.94545C25.1851 5.52996 25.472 5.16393 25.7589 4.88694C26.1744 4.49124 26.7976 4.17467 27.4011 4.17467C27.7671 4.17467 28.0837 4.32306 28.2123 4.6693C27.0647 5.25297 25.8776 6.02459 25.8776 7.24138C25.8776 8.46806 27.0252 8.8143 28.4992 8.8143C29.3895 8.8143 30.537 8.72527 31.2493 8.63624L31.279 7.63708C30.4084 7.79536 29.3301 7.89429 28.5288 7.89429C27.5297 7.89429 26.8867 7.75579 26.8867 7.0831C26.8867 6.49943 27.4209 6.04438 28.2716 5.57942C28.2617 6.06416 28.2518 6.62804 28.2321 6.97428H29.1719C29.162 6.49943 29.1521 5.70803 29.1422 5.14415C29.8347 4.82759 30.4777 4.57038 30.9822 4.37253C31.279 4.25382 31.7044 4.09553 31.9912 4.0065L31.5857 3.09638C31.2691 3.25466 30.9822 3.38327 30.6459 3.53166C30.1809 3.74929 29.6764 3.95704 29.063 4.24392C28.8751 3.68994 28.3607 3.40305 27.7374 3.40305C27.3516 3.40305 26.7976 3.51187 26.4712 3.69983C26.7482 3.32391 27.0153 2.85896 27.2329 2.39401C28.3013 2.36433 29.5181 2.2753 30.4876 2.1368V1.21679C29.5873 1.37507 28.5486 1.4641 27.5792 1.50367C27.7078 1.07829 27.7869 0.712267 27.8463 0.435274Z" fill="black"/>
<path d="M36.6803 8.91323L37.5212 8.20096C36.9573 7.51837 36.0373 6.58847 35.3349 6.0147L34.5238 6.72696C35.2162 7.31063 36.0571 8.1515 36.6803 8.91323Z" fill="black"/>
<path d="M44.4856 0.464952L43.3776 0.405596C43.3974 0.603448 43.3974 0.791407 43.3677 1.18711C43.3479 1.44432 43.3183 1.76088 43.2688 2.11701C42.5368 2.05766 41.7651 1.93895 41.1617 1.7411L41.1122 2.65122C41.7157 2.8095 42.4576 2.9381 43.1699 2.99746C43.1006 3.52176 43.0314 4.07575 42.9621 4.60006C42.2894 4.5407 41.5772 4.43188 40.9342 4.20435L40.8847 5.15404C41.4486 5.31232 42.141 5.43103 42.8632 5.49039C42.8236 5.93556 42.794 6.31148 42.794 6.56868C42.794 8.21085 43.892 8.83409 45.3265 8.83409C47.3742 8.83409 48.6998 7.86461 48.6998 6.38072C48.6998 5.52996 48.3734 4.83748 47.7106 4.05596L46.6125 4.28349C47.305 4.89683 47.6611 5.58932 47.6611 6.26201C47.6611 7.19192 46.7906 7.83494 45.3463 7.83494C44.2877 7.83494 43.7634 7.31063 43.7634 6.4104C43.7634 6.20266 43.7832 5.89599 43.8129 5.54975C43.9415 5.54975 44.0602 5.54975 44.1888 5.54975C44.8318 5.54975 45.4353 5.51017 46.0387 5.45082L46.0684 4.52092C45.3957 4.60995 44.6834 4.63963 44.0404 4.63963C43.991 4.63963 43.9514 4.63963 43.9019 4.63963C43.9613 4.12521 44.0305 3.56133 44.0998 3.04692H44.1196C44.9308 3.04692 45.4946 3.00735 46.108 2.94799L46.1377 2.01809C45.6133 2.09723 44.9505 2.14669 44.2185 2.14669C44.268 1.77077 44.3075 1.4641 44.3372 1.24647C44.3768 1.00904 44.4163 0.771622 44.4856 0.464952Z" fill="black"/>
<path d="M52.3898 4.25382L52.8053 5.28265C53.5274 4.97598 55.6049 4.11532 56.8019 4.11532C57.7417 4.11532 58.3649 4.68909 58.3649 5.49039C58.3649 6.98417 56.5743 7.58762 54.3782 7.65687L54.7937 8.61645C57.6625 8.43838 59.3838 7.36009 59.3838 5.50028C59.3838 4.08564 58.355 3.21509 56.881 3.21509C55.7038 3.21509 54.0517 3.78886 53.3691 4.0065C53.0625 4.09553 52.6767 4.20435 52.3898 4.25382Z" fill="black"/>
<path d="M64.894 0.5342L63.9147 0.939796C64.3796 1.9983 64.8742 3.11617 65.3293 3.94715C64.3203 4.65941 63.6476 5.4706 63.6476 6.51922C63.6476 8.10203 65.0523 8.64613 66.9616 8.64613C68.2179 8.64613 69.3259 8.5472 70.1074 8.40871L70.1173 7.28095C69.3061 7.48869 67.9805 7.63708 66.922 7.63708C65.448 7.63708 64.7061 7.18202 64.7061 6.4104C64.7061 5.68824 65.2601 5.06501 66.1306 4.49124C67.0704 3.8779 68.3861 3.26456 69.039 2.92821C69.3556 2.76993 69.6326 2.62154 69.8898 2.46326L69.3457 1.56303C69.1182 1.75099 68.8807 1.89938 68.5543 2.08734C68.0399 2.37422 67.0605 2.85896 66.19 3.38327C65.7745 2.61164 65.2897 1.6026 64.894 0.5342Z" fill="black"/>
<path d="M81.0486 0.49463C80.6628 1.00904 79.9802 1.68174 79.4757 2.09723L80.1583 2.5424C80.6826 2.14669 81.3256 1.54324 81.84 0.969474L81.0486 0.49463ZM75.5187 2.07744C75.2021 1.61249 74.5096 1.00904 73.9161 0.603448L73.2829 1.13765C73.8765 1.57292 74.5492 2.20605 74.846 2.66111L75.5187 2.07744ZM75.3802 2.96778C74.4997 3.45252 73.6193 3.94715 73.0257 4.23403L73.4808 4.99576C74.1238 4.61984 74.9152 4.15489 75.6275 3.70972L75.3802 2.96778ZM76.5871 3.23488H78.5656V4.10543H76.5871V3.23488ZM76.5871 1.70153H78.5656V2.56218H76.5871V1.70153ZM81.9489 6.38072V5.56953H78.0314V4.81769H79.4559V3.55144C80.2078 3.95704 81.1278 4.56049 81.5729 4.96608L82.1467 4.2736C81.6521 3.84822 80.643 3.25466 79.9011 2.88864L79.4559 3.39316V0.98926H77.8533C77.9522 0.732052 78.071 0.435274 78.1798 0.138496L77.1707 0C77.1213 0.286885 77.0223 0.662804 76.9333 0.98926H75.7363V4.81769H77.1015V5.56953H73.2434V6.38072H76.3101C75.4593 7.16224 74.1931 7.83493 73.0158 8.19107C73.2137 8.37903 73.4907 8.72527 73.6292 8.9528C74.8756 8.50763 76.1914 7.69644 77.1015 6.72696V9.07151H78.0314V6.75664C78.9514 7.68655 80.2869 8.46806 81.5433 8.88355C81.6818 8.64613 81.9587 8.29989 82.1665 8.11193C80.9497 7.77558 79.6538 7.14245 78.8129 6.38072H81.9489Z" fill="black"/>
<path d="M87.0238 0.544093L85.7575 0.5342C85.8268 0.860656 85.8663 1.26625 85.8663 1.68174C85.8663 2.63143 85.7674 5.18372 85.7674 6.58847C85.7674 8.23064 86.7764 8.87366 88.2801 8.87366C90.4961 8.87366 91.8316 7.59751 92.4845 6.65772L91.7821 5.79706C91.0698 6.85557 90.0311 7.83494 88.2999 7.83494C87.4392 7.83494 86.7962 7.4788 86.7962 6.43019C86.7962 5.06501 86.8655 2.77982 86.9149 1.68174C86.9248 1.32561 86.9644 0.910119 87.0238 0.544093Z" fill="black"/>
<path d="M101.497 1.08819L100.577 0.2671C100.448 0.474844 100.161 0.771622 99.9336 1.00904C99.2609 1.67185 97.8265 2.81939 97.0648 3.45252C96.125 4.23403 96.026 4.70888 96.9856 5.51018C97.9056 6.2818 99.3796 7.54805 100.042 8.22075C100.3 8.47795 100.557 8.75495 100.794 9.02205L101.694 8.20096C100.666 7.17213 98.8652 5.73771 98.0243 5.04522C97.4407 4.5407 97.4407 4.4121 98.0045 3.92736C98.7069 3.3338 100.072 2.25551 100.735 1.70153C100.933 1.54324 101.249 1.27614 101.497 1.08819Z" fill="black"/>
</svg>
