<svg width="20" height="20" viewBox="0 0 20 20" fill="none" xmlns="http://www.w3.org/2000/svg">
<path d="M3.5206 20H16.4794C18.8015 20 20 18.8015 20 16.5115V3.4885C20 1.1985 18.8015 0 16.4794 0H3.5206C1.2092 0 0 1.1878 0 3.4885V16.5115C0 18.8015 1.2092 20 3.5206 20ZM3.65971 17.8705C2.67523 17.8705 2.12948 17.3569 2.12948 16.3189V3.68111C2.12948 2.64312 2.67523 2.12948 3.65971 2.12948H16.3403C17.3141 2.12948 17.8705 2.64312 17.8705 3.68111V16.3189C17.8705 17.3569 17.3141 17.8705 16.3403 17.8705H3.65971ZM6.50615 14.4783C6.78438 14.4783 7.0198 14.3713 7.21241 14.1787L10.0054 11.3751L12.8197 14.1787C13.0016 14.3713 13.237 14.4783 13.5259 14.4783C14.0717 14.4783 14.4997 14.0396 14.4997 13.4938C14.4997 13.2263 14.3927 13.0016 14.2001 12.809L11.3965 9.99465L14.2108 7.16961C14.4141 6.97699 14.5104 6.75227 14.5104 6.49545C14.5104 5.94971 14.0717 5.52167 13.5367 5.52167C13.2584 5.52167 13.0444 5.60728 12.8411 5.81059L10.0054 8.63563L7.19101 5.82129C7.0091 5.62868 6.78438 5.54307 6.50615 5.54307C5.96041 5.54307 5.53237 5.96041 5.53237 6.50615C5.53237 6.76297 5.63938 6.99839 5.82129 7.18031L8.63563 9.99465L5.82129 12.8197C5.63938 13.0016 5.53237 13.237 5.53237 13.4938C5.53237 14.0396 5.96041 14.4783 6.50615 14.4783Z" fill="#32363D"/>
</svg>
