<svg width="16" height="14" viewBox="0 0 16 14" fill="none" xmlns="http://www.w3.org/2000/svg">
<path d="M0.704403 1.46697H15.2879C15.6826 1.46697 16 1.13212 16 0.733485C16 0.318907 15.6826 0 15.2879 0H0.704403C0.309627 0 0 0.326879 0 0.733485C0 1.13212 0.309627 1.46697 0.704403 1.46697ZM0.704403 5.64465H15.2879C15.6826 5.64465 16 5.30979 16 4.91116C16 4.49658 15.6826 4.17768 15.2879 4.17768H0.704403C0.309627 4.17768 0 4.50456 0 4.91116C0 5.30979 0.309627 5.64465 0.704403 5.64465ZM0.704403 9.82232H15.2879C15.6826 9.82232 16 9.48747 16 9.08884C16 8.68223 15.6826 8.35535 15.2879 8.35535H0.704403C0.309627 8.35535 0 8.68223 0 9.08884C0 9.48747 0.309627 9.82232 0.704403 9.82232ZM0.704403 14H15.2879C15.6826 14 16 13.6651 16 13.2665C16 12.8599 15.6826 12.533 15.2879 12.533H0.704403C0.309627 12.533 0 12.8599 0 13.2665C0 13.6651 0.309627 14 0.704403 14Z" fill="#32363D"/>
</svg>
